<svg xmlns="http://www.w3.org/2000/svg" width="416.624" height="448.288" viewBox="0 0 416.624 448.288"><g transform="translate(-0.004 0)"><path d="M575.279,393.381,395.186,439.757a23.814,23.814,0,0,1-28.967-17.1l-54.465-211.5a23.813,23.813,0,0,1,17.1-28.967L496.4,139.037l42.884,19.2,53.093,206.179A23.814,23.814,0,0,1,575.279,393.381Z" transform="translate(-310.999 -139.037)" fill="#f2f2f2"/><path d="M333.218,191.614a16.958,16.958,0,0,0-12.18,20.628l54.465,211.5a16.958,16.958,0,0,0,20.628,12.18l180.093-46.376a16.958,16.958,0,0,0,12.18-20.628L536.132,165.937l-37.687-16.871Z" transform="translate(-313.652 -141.837)" fill="#fff"/><path d="M610.485,159.545l-27.872,7.177a7.922,7.922,0,0,1-9.647-5.7l-5.3-20.586a.5.5,0,0,1,.68-.576l42.217,18.749a.5.5,0,0,1-.078.932Z" transform="translate(-382.653 -139.256)" fill="#f2f2f2"/><path d="M573.058,414.745l-81.994,21.114a3.961,3.961,0,0,1-1.976-7.672l81.994-21.114a3.961,3.961,0,1,1,1.976,7.672Z" transform="translate(-359.889 -213.836)" fill="#ccc"/><path d="M593.507,427.053,495.69,452.242a3.961,3.961,0,1,1-1.976-7.672l97.817-25.189a3.961,3.961,0,0,1,1.976,7.672Z" transform="translate(-361.181 -217.272)" fill="#ccc"/><circle cx="14" cy="14" r="14" transform="translate(83.71 219.453)" fill="#e6e6e6"/><path d="M537.691,323.253,428.8,351.284a12.268,12.268,0,0,1-14.922-8.812l-22.82-88.652a12.267,12.267,0,0,1,8.812-14.922l108.9-28.031a12.267,12.267,0,0,1,14.922,8.812L546.5,308.331A12.268,12.268,0,0,1,537.691,323.253Z" transform="translate(-333.241 -158.984)" fill="#fff"/><path d="M537.691,323.253,428.8,351.284a12.268,12.268,0,0,1-14.922-8.812l-22.82-88.652a12.267,12.267,0,0,1,8.812-14.922l108.9-28.031a12.267,12.267,0,0,1,14.922,8.812L546.5,308.331A12.268,12.268,0,0,1,537.691,323.253ZM400.225,240.294a10.824,10.824,0,0,0-7.775,13.166l22.821,88.652a10.824,10.824,0,0,0,13.166,7.775l108.9-28.031a10.824,10.824,0,0,0,7.775-13.166l-22.82-88.652a10.824,10.824,0,0,0-13.166-7.775Z" transform="translate(-333.241 -158.984)" fill="#e6e6e6"/><path d="M524.594,250.86l-54.958,14.147a1.968,1.968,0,0,1-2.385-1.239,1.9,1.9,0,0,1,1.336-2.407l55.944-14.4c2.26,1.145,1.665,3.487.063,3.9Z" transform="translate(-354.598 -169.169)" fill="#f2f2f2"/><path d="M528.037,264.234l-54.958,14.147a1.969,1.969,0,0,1-2.385-1.239,1.9,1.9,0,0,1,1.336-2.407l55.944-14.4c2.26,1.145,1.665,3.487.063,3.9Z" transform="translate(-355.559 -172.903)" fill="#f2f2f2"/><path d="M450.012,287.936l-16.773,4.318a2.135,2.135,0,0,1-2.6-1.534l-5.1-19.793a2.135,2.135,0,0,1,1.534-2.6l16.773-4.318a2.136,2.136,0,0,1,2.6,1.534l5.1,19.793a2.135,2.135,0,0,1-1.534,2.6Z" transform="translate(-342.96 -173.911)" fill="#e6e6e6"/><path d="M523.663,291.675l-83.876,21.591a1.968,1.968,0,0,1-2.385-1.239,1.9,1.9,0,0,1,1.336-2.407L523.6,287.775c2.26,1.145,1.665,3.487.063,3.9Z" transform="translate(-346.265 -180.564)" fill="#f2f2f2"/><path d="M527.107,305.053,443.23,326.644a1.968,1.968,0,0,1-2.385-1.239A1.9,1.9,0,0,1,442.181,323l84.863-21.845C529.3,302.3,528.709,304.64,527.107,305.053Z" transform="translate(-347.226 -184.299)" fill="#f2f2f2"/><path d="M530.548,318.422l-83.876,21.591a1.968,1.968,0,0,1-2.385-1.239,1.9,1.9,0,0,1,1.336-2.407l84.863-21.845c2.26,1.145,1.665,3.487.063,3.9Z" transform="translate(-348.187 -188.032)" fill="#f2f2f2"/><path d="M533.992,331.8,450.115,353.39a1.968,1.968,0,0,1-2.385-1.239,1.9,1.9,0,0,1,1.336-2.407L533.929,327.9C536.189,329.044,535.594,331.386,533.992,331.8Z" transform="translate(-349.148 -191.766)" fill="#f2f2f2"/><path d="M537.433,345.169,453.557,366.76a1.968,1.968,0,0,1-2.385-1.239,1.9,1.9,0,0,1,1.335-2.407l84.863-21.845C539.63,342.414,539.036,344.756,537.433,345.169Z" transform="translate(-350.109 -195.499)" fill="#f2f2f2"/><path d="M445.8,465.139a1.452,1.452,0,0,1-.918-.063l-.018-.007-3.814-1.617a1.462,1.462,0,1,1,1.144-2.691l2.471,1.051,3.239-7.618a1.462,1.462,0,0,1,1.917-.773h0l-.019.05.02-.05a1.463,1.463,0,0,1,.773,1.917l-3.81,8.958a1.462,1.462,0,0,1-.984.842Z" transform="translate(-347.06 -226.778)" fill="#fff"/><path d="M692.229,500.692H506.261a23.813,23.813,0,0,1-23.787-23.787V258.5a23.814,23.814,0,0,1,23.787-23.787H679.274L716.016,264V476.906A23.813,23.813,0,0,1,692.229,500.692Z" transform="translate(-358.873 -165.75)" fill="#e6e6e6"/><path d="M508.913,244.215a16.958,16.958,0,0,0-16.939,16.939v218.4A16.958,16.958,0,0,0,508.913,496.5H694.881a16.958,16.958,0,0,0,16.939-16.939V269.952l-32.289-25.737Z" transform="translate(-361.525 -168.402)" fill="#fff"/><path d="M688.964,329.25H604.3a3.961,3.961,0,1,1,0-7.922h84.669a3.961,3.961,0,0,1,0,7.922Z" transform="translate(-391.779 -189.932)" fill="#ccc"/><path d="M705.3,347.8H604.3a3.961,3.961,0,0,1,0-7.922H705.3a3.961,3.961,0,0,1,0,7.922Z" transform="translate(-391.779 -195.11)" fill="#ccc"/><path d="M688.966,404.443H604.3a3.961,3.961,0,0,0,0,7.922h84.666a3.961,3.961,0,0,0,0-7.922Z" transform="translate(-391.78 -213.137)" fill="#ccc"/><path d="M705.307,422.993H604.3a3.961,3.961,0,0,0,0,7.922H705.307a3.961,3.961,0,0,0,0-7.922Z" transform="translate(-391.78 -218.316)" fill="#ccc"/><path d="M688.964,495.486H604.3a3.961,3.961,0,1,1,0-7.922h84.669a3.961,3.961,0,1,1,0,7.922Z" transform="translate(-391.779 -236.344)" fill="#ccc"/><path d="M705.3,514.033H604.3a3.961,3.961,0,0,1,0-7.922H705.3a3.961,3.961,0,1,1,0,7.922Z" transform="translate(-391.779 -241.522)" fill="#ccc"/><circle cx="14" cy="14" r="14" transform="translate(163.258 128.042)" fill="#02b894"/><path d="M553.15,339.382a1.452,1.452,0,0,1-.874-.29l-.016-.012-3.29-2.517a1.462,1.462,0,0,1,1.779-2.321l2.131,1.634,5.036-6.57a1.462,1.462,0,0,1,2.049-.271h0l-.031.043.032-.043a1.463,1.463,0,0,1,.27,2.05l-5.924,7.724a1.462,1.462,0,0,1-1.163.57Z" transform="translate(-377.278 -191.999)" fill="#fff"/><path d="M567.489,413.789a14,14,0,0,1-14,14.005,3,3,0,0,1-.36-.014,14,14,0,1,1,14.358-13.991Z" transform="translate(-374.791 -211.836)" fill="#ccc"/><circle cx="14" cy="14" r="14" transform="translate(163.258 247.865)" fill="#ccc"/><path d="M791.266,265.157H762.485a7.922,7.922,0,0,1-7.922-7.922V235.978a.5.5,0,0,1,.8-.388l36.208,28.684a.5.5,0,0,1-.307.883Z" transform="translate(-434.838 -165.964)" fill="#ccc"/><path d="M571.93,413.866a14,14,0,0,1-14,14.005,3,3,0,0,1-.36-.014,30.31,30.31,0,0,1,2.717-27.794A14.008,14.008,0,0,1,571.93,413.866Z" transform="translate(-379.232 -211.914)" fill="#02b894"/><path d="M600.334,408.407a3.971,3.971,0,0,1,3.964-3.964h21.1a29.963,29.963,0,0,1,2.6,7.922H604.3a3.965,3.965,0,0,1-3.964-3.956Z" transform="translate(-391.779 -213.137)" fill="#ccc"/><path d="M628.49,422.993a30.217,30.217,0,0,1-1.052,7.922H604.3a3.961,3.961,0,0,1,0-7.922Z" transform="translate(-391.78 -218.316)" fill="#ccc"/><path d="M689.166,476.3a4.325,4.325,0,0,1-5.944,1.44l-50.46-30.779a4.325,4.325,0,0,1,4.5-7.384l50.46,30.779a4.325,4.325,0,0,1,1.44,5.944Z" transform="translate(-400.253 -222.77)" fill="#3f3d56"/><path d="M616.967,427.688a34.6,34.6,0,1,1-11.521-47.554A34.6,34.6,0,0,1,616.967,427.688Zm-51.691-31.529a25.949,25.949,0,1,0,35.666-8.641,25.949,25.949,0,0,0-35.666,8.641Z" transform="translate(-378.515 -204.936)" fill="#3f3d56"/><circle cx="17.704" cy="17.704" r="17.704" transform="translate(331.602 174.876)" fill="#a0616a"/><path d="M793.868,517.509a7.93,7.93,0,0,1,6-10.2,7.551,7.551,0,0,1,1.052-.13l18.648-29.93-17.034-16.194a6.8,6.8,0,1,1,9.458-9.769l23.519,23.191.047.058a6.159,6.159,0,0,1-.429,7.341L809,512.779a7.444,7.444,0,0,1,.195.754,7.931,7.931,0,0,1-7.118,9.454q-.338.029-.672.029a7.955,7.955,0,0,1-7.536-5.507Z" transform="translate(-445.706 -225.681)" fill="#a0616a"/><path d="M439.1,595.8h-8.837l-4.2-34.086H439.1Z" transform="translate(-118.952 -156.827)" fill="#a0616a"/><path d="M747.24,755.486H718.746v-.36a11.09,11.09,0,0,1,11.091-11.091h17.4Z" transform="translate(-424.839 -307.949)" fill="#2f2e41"/><path d="M554.912,580.706l-7.593,4.521-21.051-27.135,11.206-6.673Z" transform="translate(-146.93 -153.953)" fill="#a0616a"/><path d="M875.612,735.888,851.13,750.465l-.184-.31a11.09,11.09,0,0,1,3.855-15.2h0l14.953-8.9Z" transform="translate(-461.311 -302.927)" fill="#2f2e41"/><path d="M733.767,664.819c-5.92-69.706-9.442-134.463,12.2-160.879l.167-.2L782.553,518.3l.06.13c.123.267,12.235,26.91,9.41,44.83l8.983,41.322L830.3,653.63a3.245,3.245,0,0,1-1.478,4.633l-12.729,5.6a3.259,3.259,0,0,1-4.071-1.273l-31.863-51.956-18-39.851a1.081,1.081,0,0,0-2.061.331l-9.976,93.775a3.238,3.238,0,0,1-3.225,2.9H737a3.265,3.265,0,0,1-3.233-2.972Z" transform="translate(-427.775 -240.859)" fill="#2f2e41"/><path d="M752.347,486.441l-.174-.083-.027-.191c-1.36-9.522.25-20.1,4.786-31.445a24.966,24.966,0,0,1,28.978-14.952h0A24.936,24.936,0,0,1,801.812,452a24.667,24.667,0,0,1,1.71,19.768c-5.719,16.723-13.137,32.369-13.212,32.526l-.155.327Z" transform="translate(-434.033 -222.807)" fill="#4469e0"/><path d="M696.313,465.788a7.93,7.93,0,0,1,11.655,2.047,7.542,7.542,0,0,1,.49.94l34.566,6.986,9.2-21.627a6.8,6.8,0,1,1,12.462,5.438L751.2,489.723l-.038.065a6.159,6.159,0,0,1-7.026,2.169l-38.1-13.653a7.418,7.418,0,0,1-.638.446,7.931,7.931,0,0,1-11.348-3.356q-.146-.306-.263-.619a7.955,7.955,0,0,1,2.52-8.988Z" transform="translate(-417.735 -225.871)" fill="#a0616a"/><path d="M851.244,415.514c-1.705-3.021-4.19-5.789-7.474-6.906-4.242-1.442-8.835.093-13.2,1.119a24.45,24.45,0,0,1-10.257.607,11.519,11.519,0,0,1-8.194-5.726c-2.267-4.544-.357-9.962-.5-15.038a18.261,18.261,0,0,0-23.011-17.163c-4.176-1.205-7.957-1.317-10.54,1.894a12.254,12.254,0,0,0-12.254,12.254H777.54a11.641,11.641,0,0,0,1.769,8.6c2.068,3.039,5.665,5.237,6.357,8.847.671,3.5-1.707,6.818-4.2,9.361s-5.388,5.063-6.167,8.539a10.588,10.588,0,0,0,1.516,7.615,24.8,24.8,0,0,0,5.324,5.864A78.137,78.137,0,0,0,814.6,451.988c8.436,2.031,17.664,2.558,25.5-1.179a25.319,25.319,0,0,0,11.147-35.3Z" transform="translate(-437.982 -203.975)" fill="#2f2e41"/><path d="M834.675,760.4H697.721a.721.721,0,1,1,0-1.442H834.675a.721.721,0,1,1,0,1.442Z" transform="translate(-418.768 -312.117)" fill="#ccc"/></g></svg>